<mxfile host="www.draw.io" modified="2020-02-27T08:15:54.918Z" agent="Mozilla/5.0 (Macintosh; Intel Mac OS X 10_12_6) AppleWebKit/605.1.15 (KHTML, like Gecko) Version/12.1.2 Safari/605.1.15" etag="z23vhrY3kTYpu7vm97yC" version="12.7.8" type="github" pages="2">
  <diagram id="BHa22Xi18E4oROtJBQzS" name="Page-1">
    <mxGraphModel dx="1186" dy="662" grid="1" gridSize="10" guides="1" tooltips="1" connect="1" arrows="1" fold="1" page="1" pageScale="1" pageWidth="827" pageHeight="1169" math="0" shadow="0">
      <root>
        <mxCell id="0" />
        <mxCell id="1" parent="0" />
        <mxCell id="QnXjbmrfORfTQE6EK7PR-1" value="社会工" style="shape=umlActor;verticalLabelPosition=bottom;labelBackgroundColor=#ffffff;verticalAlign=top;html=1;outlineConnect=0;" parent="1" vertex="1">
          <mxGeometry x="150" y="220" width="30" height="60" as="geometry" />
        </mxCell>
        <mxCell id="QnXjbmrfORfTQE6EK7PR-4" value="学生" style="shape=umlActor;verticalLabelPosition=bottom;labelBackgroundColor=#ffffff;verticalAlign=top;html=1;outlineConnect=0;" parent="1" vertex="1">
          <mxGeometry x="150" y="90" width="30" height="60" as="geometry" />
        </mxCell>
        <mxCell id="QnXjbmrfORfTQE6EK7PR-14" value="" style="edgeStyle=orthogonalEdgeStyle;rounded=0;orthogonalLoop=1;jettySize=auto;html=1;" parent="1" source="QnXjbmrfORfTQE6EK7PR-7" target="QnXjbmrfORfTQE6EK7PR-8" edge="1">
          <mxGeometry relative="1" as="geometry" />
        </mxCell>
        <mxCell id="QnXjbmrfORfTQE6EK7PR-19" value="3" style="text;html=1;align=center;verticalAlign=middle;resizable=0;points=[];labelBackgroundColor=#ffffff;" parent="QnXjbmrfORfTQE6EK7PR-14" vertex="1" connectable="0">
          <mxGeometry x="-0.3667" y="1" relative="1" as="geometry">
            <mxPoint as="offset" />
          </mxGeometry>
        </mxCell>
        <mxCell id="QnXjbmrfORfTQE6EK7PR-7" value="学校" style="rounded=1;whiteSpace=wrap;html=1;" parent="1" vertex="1">
          <mxGeometry x="280" y="100" width="100" height="40" as="geometry" />
        </mxCell>
        <mxCell id="QnXjbmrfORfTQE6EK7PR-15" value="" style="edgeStyle=orthogonalEdgeStyle;rounded=0;orthogonalLoop=1;jettySize=auto;html=1;" parent="1" source="QnXjbmrfORfTQE6EK7PR-8" target="QnXjbmrfORfTQE6EK7PR-10" edge="1">
          <mxGeometry relative="1" as="geometry" />
        </mxCell>
        <mxCell id="QnXjbmrfORfTQE6EK7PR-8" value="亿佳华" style="rounded=1;whiteSpace=wrap;html=1;" parent="1" vertex="1">
          <mxGeometry x="280" y="200" width="100" height="40" as="geometry" />
        </mxCell>
        <mxCell id="QnXjbmrfORfTQE6EK7PR-9" value="工厂" style="rounded=1;whiteSpace=wrap;html=1;" parent="1" vertex="1">
          <mxGeometry x="640" y="200" width="100" height="40" as="geometry" />
        </mxCell>
        <mxCell id="QnXjbmrfORfTQE6EK7PR-16" value="" style="edgeStyle=orthogonalEdgeStyle;rounded=0;orthogonalLoop=1;jettySize=auto;html=1;" parent="1" source="QnXjbmrfORfTQE6EK7PR-10" target="QnXjbmrfORfTQE6EK7PR-9" edge="1">
          <mxGeometry relative="1" as="geometry" />
        </mxCell>
        <mxCell id="QnXjbmrfORfTQE6EK7PR-10" value="海聘" style="rounded=1;whiteSpace=wrap;html=1;" parent="1" vertex="1">
          <mxGeometry x="460" y="200" width="100" height="40" as="geometry" />
        </mxCell>
        <mxCell id="QnXjbmrfORfTQE6EK7PR-11" value="" style="endArrow=classic;html=1;exitX=1;exitY=0.3333333333333333;exitDx=0;exitDy=0;exitPerimeter=0;entryX=0;entryY=0.5;entryDx=0;entryDy=0;" parent="1" source="QnXjbmrfORfTQE6EK7PR-1" target="QnXjbmrfORfTQE6EK7PR-8" edge="1">
          <mxGeometry width="50" height="50" relative="1" as="geometry">
            <mxPoint x="420" y="300" as="sourcePoint" />
            <mxPoint x="470" y="250" as="targetPoint" />
          </mxGeometry>
        </mxCell>
        <mxCell id="QnXjbmrfORfTQE6EK7PR-17" value="1" style="text;html=1;align=center;verticalAlign=middle;resizable=0;points=[];labelBackgroundColor=#ffffff;" parent="QnXjbmrfORfTQE6EK7PR-11" vertex="1" connectable="0">
          <mxGeometry x="0.0538" y="-2" relative="1" as="geometry">
            <mxPoint as="offset" />
          </mxGeometry>
        </mxCell>
        <mxCell id="QnXjbmrfORfTQE6EK7PR-12" value="2" style="endArrow=classic;html=1;entryX=0;entryY=0.25;entryDx=0;entryDy=0;" parent="1" target="QnXjbmrfORfTQE6EK7PR-8" edge="1">
          <mxGeometry width="50" height="50" relative="1" as="geometry">
            <mxPoint x="190" y="130" as="sourcePoint" />
            <mxPoint x="290" y="230" as="targetPoint" />
          </mxGeometry>
        </mxCell>
        <mxCell id="QnXjbmrfORfTQE6EK7PR-13" value="" style="endArrow=classic;html=1;exitX=1;exitY=0.3333333333333333;exitDx=0;exitDy=0;exitPerimeter=0;entryX=0;entryY=0.5;entryDx=0;entryDy=0;" parent="1" target="QnXjbmrfORfTQE6EK7PR-7" edge="1">
          <mxGeometry width="50" height="50" relative="1" as="geometry">
            <mxPoint x="190" y="120" as="sourcePoint" />
            <mxPoint x="290" y="220" as="targetPoint" />
          </mxGeometry>
        </mxCell>
      </root>
    </mxGraphModel>
  </diagram>
  <diagram id="u4T3ctXfvyd1MrAKVFzs" name="海聘运营架构">
    <mxGraphModel dx="946" dy="662" grid="1" gridSize="10" guides="1" tooltips="1" connect="1" arrows="1" fold="1" page="1" pageScale="1" pageWidth="827" pageHeight="1169" math="0" shadow="0">
      <root>
        <mxCell id="DslbjQHbkyDTHoWoJ0GG-0" />
        <mxCell id="DslbjQHbkyDTHoWoJ0GG-1" parent="DslbjQHbkyDTHoWoJ0GG-0" />
        <mxCell id="DslbjQHbkyDTHoWoJ0GG-2" value="统一数据平台" style="ellipse;whiteSpace=wrap;html=1;aspect=fixed;fontSize=18;" vertex="1" parent="DslbjQHbkyDTHoWoJ0GG-1">
          <mxGeometry x="425" y="420" width="130" height="130" as="geometry" />
        </mxCell>
        <mxCell id="DslbjQHbkyDTHoWoJ0GG-4" value="小程序" style="rounded=1;whiteSpace=wrap;html=1;fontSize=18;" vertex="1" parent="DslbjQHbkyDTHoWoJ0GG-1">
          <mxGeometry x="260" y="310" width="120" height="60" as="geometry" />
        </mxCell>
        <mxCell id="DslbjQHbkyDTHoWoJ0GG-5" value="公众号H5" style="rounded=1;whiteSpace=wrap;html=1;fontSize=18;" vertex="1" parent="DslbjQHbkyDTHoWoJ0GG-1">
          <mxGeometry x="430" y="310" width="120" height="60" as="geometry" />
        </mxCell>
        <mxCell id="DslbjQHbkyDTHoWoJ0GG-7" value="APP" style="rounded=1;whiteSpace=wrap;html=1;fontSize=18;" vertex="1" parent="DslbjQHbkyDTHoWoJ0GG-1">
          <mxGeometry x="600" y="310" width="120" height="60" as="geometry" />
        </mxCell>
        <mxCell id="DslbjQHbkyDTHoWoJ0GG-8" value="小程序" style="rounded=1;whiteSpace=wrap;html=1;fontSize=18;" vertex="1" parent="DslbjQHbkyDTHoWoJ0GG-1">
          <mxGeometry x="160" y="190" width="110" height="50" as="geometry" />
        </mxCell>
        <mxCell id="DslbjQHbkyDTHoWoJ0GG-9" value="中介公司" style="shape=umlActor;verticalLabelPosition=bottom;labelBackgroundColor=#ffffff;verticalAlign=top;html=1;outlineConnect=0;fontSize=18;" vertex="1" parent="DslbjQHbkyDTHoWoJ0GG-1">
          <mxGeometry x="120" y="40" width="30" height="60" as="geometry" />
        </mxCell>
        <mxCell id="DslbjQHbkyDTHoWoJ0GG-10" value="代理" style="shape=umlActor;verticalLabelPosition=bottom;labelBackgroundColor=#ffffff;verticalAlign=top;html=1;outlineConnect=0;fontSize=18;" vertex="1" parent="DslbjQHbkyDTHoWoJ0GG-1">
          <mxGeometry x="250" y="40" width="30" height="60" as="geometry" />
        </mxCell>
        <mxCell id="DslbjQHbkyDTHoWoJ0GG-11" value="工人" style="shape=umlActor;verticalLabelPosition=bottom;labelBackgroundColor=#ffffff;verticalAlign=top;html=1;outlineConnect=0;fontSize=18;" vertex="1" parent="DslbjQHbkyDTHoWoJ0GG-1">
          <mxGeometry x="360" y="40" width="30" height="60" as="geometry" />
        </mxCell>
      </root>
    </mxGraphModel>
  </diagram>
</mxfile>
